<svg width="205" height="195" viewBox="0 0 205 195" fill="none" xmlns="http://www.w3.org/2000/svg">
<ellipse cx="102.5" cy="97.5" rx="102.5" ry="97.5" fill="#FF9F45"/>
<path d="M69.832 62.4062V88H64.6816V62.4062H69.832ZM77.8477 73.2871V77.541H68.5312V73.2871H77.8477ZM78.832 62.4062V66.6777H68.5312V62.4062H78.832ZM80.6426 79.1406V77.8574C80.6426 76.3691 80.8184 75.0508 81.1699 73.9023C81.5332 72.7539 82.0488 71.793 82.7168 71.0195C83.3848 70.2344 84.1875 69.6426 85.125 69.2441C86.0742 68.834 87.1348 68.6289 88.3066 68.6289C89.4902 68.6289 90.5508 68.834 91.4883 69.2441C92.4375 69.6426 93.2461 70.2344 93.9141 71.0195C94.5938 71.793 95.1152 72.7539 95.4785 73.9023C95.8418 75.0508 96.0234 76.3691 96.0234 77.8574V79.1406C96.0234 80.6172 95.8418 81.9297 95.4785 83.0781C95.1152 84.2266 94.5938 85.1934 93.9141 85.9785C93.2461 86.7637 92.4434 87.3555 91.5059 87.7539C90.5684 88.1523 89.5137 88.3516 88.3418 88.3516C87.1699 88.3516 86.1094 88.1523 85.1602 87.7539C84.2227 87.3555 83.4141 86.7637 82.7344 85.9785C82.0547 85.1934 81.5332 84.2266 81.1699 83.0781C80.8184 81.9297 80.6426 80.6172 80.6426 79.1406ZM85.5645 77.8574V79.1406C85.5645 80.0195 85.623 80.7812 85.7402 81.4258C85.8691 82.0703 86.0508 82.6035 86.2852 83.0254C86.5312 83.4473 86.8242 83.7578 87.1641 83.957C87.5039 84.1562 87.8965 84.2559 88.3418 84.2559C88.7871 84.2559 89.1855 84.1562 89.5371 83.957C89.8887 83.7578 90.1758 83.4473 90.3984 83.0254C90.6328 82.6035 90.8027 82.0703 90.9082 81.4258C91.0254 80.7812 91.084 80.0195 91.084 79.1406V77.8574C91.084 77.002 91.0195 76.252 90.8906 75.6074C90.7617 74.9512 90.5801 74.418 90.3457 74.0078C90.1113 73.5859 89.8184 73.2695 89.4668 73.0586C89.127 72.8359 88.7402 72.7246 88.3066 72.7246C87.873 72.7246 87.4863 72.8359 87.1465 73.0586C86.8184 73.2695 86.5312 73.5859 86.2852 74.0078C86.0508 74.418 85.8691 74.9512 85.7402 75.6074C85.623 76.252 85.5645 77.002 85.5645 77.8574ZM98.5723 79.1406V77.8574C98.5723 76.3691 98.748 75.0508 99.0996 73.9023C99.4629 72.7539 99.9785 71.793 100.646 71.0195C101.314 70.2344 102.117 69.6426 103.055 69.2441C104.004 68.834 105.064 68.6289 106.236 68.6289C107.42 68.6289 108.48 68.834 109.418 69.2441C110.367 69.6426 111.176 70.2344 111.844 71.0195C112.523 71.793 113.045 72.7539 113.408 73.9023C113.771 75.0508 113.953 76.3691 113.953 77.8574V79.1406C113.953 80.6172 113.771 81.9297 113.408 83.0781C113.045 84.2266 112.523 85.1934 111.844 85.9785C111.176 86.7637 110.373 87.3555 109.436 87.7539C108.498 88.1523 107.443 88.3516 106.271 88.3516C105.1 88.3516 104.039 88.1523 103.09 87.7539C102.152 87.3555 101.344 86.7637 100.664 85.9785C99.9844 85.1934 99.4629 84.2266 99.0996 83.0781C98.748 81.9297 98.5723 80.6172 98.5723 79.1406ZM103.494 77.8574V79.1406C103.494 80.0195 103.553 80.7812 103.67 81.4258C103.799 82.0703 103.98 82.6035 104.215 83.0254C104.461 83.4473 104.754 83.7578 105.094 83.957C105.434 84.1562 105.826 84.2559 106.271 84.2559C106.717 84.2559 107.115 84.1562 107.467 83.957C107.818 83.7578 108.105 83.4473 108.328 83.0254C108.562 82.6035 108.732 82.0703 108.838 81.4258C108.955 80.7812 109.014 80.0195 109.014 79.1406V77.8574C109.014 77.002 108.949 76.252 108.82 75.6074C108.691 74.9512 108.51 74.418 108.275 74.0078C108.041 73.5859 107.748 73.2695 107.396 73.0586C107.057 72.8359 106.67 72.7246 106.236 72.7246C105.803 72.7246 105.416 72.8359 105.076 73.0586C104.748 73.2695 104.461 73.5859 104.215 74.0078C103.98 74.418 103.799 74.9512 103.67 75.6074C103.553 76.252 103.494 77.002 103.494 77.8574ZM126.275 83.7988V61H131.215V88L126.75 88.0176L126.275 83.7988ZM116.414 79.1582V77.8926C116.414 76.3457 116.543 74.9922 116.801 73.832C117.07 72.6719 117.469 71.7051 117.996 70.9316C118.523 70.1582 119.168 69.584 119.93 69.209C120.703 68.8223 121.588 68.6289 122.584 68.6289C123.486 68.6289 124.277 68.8574 124.957 69.3145C125.648 69.7598 126.234 70.3867 126.715 71.1953C127.195 72.0039 127.582 72.959 127.875 74.0605C128.168 75.1621 128.373 76.3691 128.49 77.6816V79.5098C128.35 80.752 128.133 81.9121 127.84 82.9902C127.559 84.0684 127.172 85.0059 126.68 85.8027C126.199 86.5996 125.619 87.2266 124.939 87.6836C124.26 88.1289 123.469 88.3516 122.566 88.3516C121.57 88.3516 120.686 88.1523 119.912 87.7539C119.15 87.3555 118.506 86.7695 117.979 85.9961C117.463 85.2109 117.07 84.25 116.801 83.1133C116.543 81.9648 116.414 80.6465 116.414 79.1582ZM121.336 77.8926V79.1582C121.336 80.0488 121.377 80.8164 121.459 81.4609C121.553 82.0938 121.699 82.6152 121.898 83.0254C122.109 83.4238 122.385 83.7227 122.725 83.9219C123.064 84.1094 123.486 84.2031 123.99 84.2031C124.646 84.2031 125.18 84.0391 125.59 83.7109C126 83.3711 126.305 82.9082 126.504 82.3223C126.715 81.7246 126.832 81.0391 126.855 80.2656V76.9434C126.832 76.2988 126.756 75.7188 126.627 75.2031C126.498 74.6875 126.316 74.248 126.082 73.8848C125.848 73.5215 125.555 73.2402 125.203 73.041C124.863 72.8418 124.465 72.7422 124.008 72.7422C123.516 72.7422 123.094 72.8418 122.742 73.041C122.402 73.2402 122.133 73.5508 121.934 73.9727C121.734 74.3828 121.582 74.916 121.477 75.5723C121.383 76.2168 121.336 76.9902 121.336 77.8926ZM55.8223 104.406V130H50.6719V104.406H55.8223ZM63.8379 115.287V119.541H54.5215V115.287H63.8379ZM64.8223 104.406V108.678H54.5215V104.406H64.8223ZM75.3691 125.623V116.834C75.3691 116.26 75.2988 115.803 75.1582 115.463C75.0293 115.123 74.8301 114.877 74.5605 114.725C74.3027 114.561 73.9863 114.479 73.6113 114.479C73.1895 114.479 72.8379 114.566 72.5566 114.742C72.2754 114.918 72.0645 115.17 71.9238 115.498C71.7949 115.826 71.7305 116.219 71.7305 116.676H66.791C66.791 115.855 66.9492 115.082 67.2656 114.355C67.582 113.617 68.0449 112.973 68.6543 112.422C69.2754 111.859 70.0137 111.42 70.8691 111.104C71.7246 110.787 72.6855 110.629 73.752 110.629C75.0176 110.629 76.1426 110.846 77.127 111.279C78.1113 111.701 78.8906 112.375 79.4648 113.301C80.0391 114.227 80.3262 115.428 80.3262 116.904V125.377C80.3262 126.443 80.3789 127.311 80.4844 127.979C80.6016 128.646 80.7715 129.221 80.9941 129.701V130H76.0371C75.8145 129.473 75.6445 128.816 75.5273 128.031C75.4219 127.234 75.3691 126.432 75.3691 125.623ZM75.9668 118.381L75.9844 121.334H74.1738C73.7051 121.334 73.2949 121.41 72.9434 121.562C72.6035 121.715 72.3164 121.932 72.082 122.213C71.8477 122.482 71.6719 122.799 71.5547 123.162C71.4492 123.525 71.3965 123.912 71.3965 124.322C71.3965 124.779 71.4609 125.166 71.5898 125.482C71.7188 125.799 71.9121 126.039 72.1699 126.203C72.4277 126.367 72.7324 126.449 73.084 126.449C73.623 126.449 74.0918 126.338 74.4902 126.115C74.8887 125.893 75.1816 125.623 75.3691 125.307C75.5684 124.99 75.6328 124.697 75.5625 124.428L76.6875 126.344C76.5469 126.777 76.3535 127.229 76.1074 127.697C75.873 128.166 75.5742 128.6 75.2109 128.998C74.8477 129.396 74.3965 129.725 73.8574 129.982C73.3301 130.229 72.7031 130.352 71.9766 130.352C70.957 130.352 70.0254 130.117 69.1816 129.648C68.3379 129.18 67.6699 128.523 67.1777 127.68C66.6973 126.836 66.457 125.834 66.457 124.674C66.457 123.713 66.6094 122.846 66.9141 122.072C67.2305 121.287 67.6992 120.625 68.3203 120.086C68.9414 119.535 69.7266 119.113 70.6758 118.82C71.625 118.527 72.7383 118.381 74.0156 118.381H75.9668ZM90.8379 126.256C91.2949 126.256 91.6875 126.162 92.0156 125.975C92.3555 125.787 92.6133 125.482 92.7891 125.061C92.9648 124.639 93.0586 124.094 93.0703 123.426H97.6934C97.6934 124.855 97.3887 126.092 96.7793 127.135C96.1816 128.166 95.373 128.963 94.3535 129.525C93.3457 130.076 92.2031 130.352 90.9258 130.352C89.6484 130.352 88.5352 130.146 87.5859 129.736C86.6367 129.326 85.8516 128.729 85.2305 127.943C84.6211 127.158 84.1582 126.203 83.8418 125.078C83.5371 123.941 83.3848 122.641 83.3848 121.176V119.787C83.3848 118.346 83.5371 117.057 83.8418 115.92C84.1582 114.783 84.6211 113.822 85.2305 113.037C85.8516 112.252 86.6309 111.654 87.5684 111.244C88.5176 110.834 89.6309 110.629 90.9082 110.629C92.2793 110.629 93.4688 110.916 94.4766 111.49C95.4844 112.053 96.2695 112.885 96.832 113.986C97.4062 115.088 97.6934 116.447 97.6934 118.064H93.0703C93.0586 117.338 92.9707 116.734 92.8066 116.254C92.6543 115.762 92.4141 115.387 92.0859 115.129C91.7695 114.859 91.3477 114.725 90.8203 114.725C90.2695 114.725 89.8242 114.842 89.4844 115.076C89.1562 115.299 88.9043 115.627 88.7285 116.061C88.5645 116.482 88.4531 117.01 88.3945 117.643C88.3359 118.275 88.3066 118.99 88.3066 119.787V121.176C88.3066 122.031 88.3301 122.775 88.377 123.408C88.4355 124.029 88.5469 124.557 88.7109 124.99C88.8867 125.412 89.1387 125.729 89.4668 125.939C89.8066 126.15 90.2637 126.256 90.8379 126.256ZM108.82 110.98V114.689H99.1172V110.98H108.82ZM101.35 106.287H106.254V124.199C106.254 124.727 106.307 125.131 106.412 125.412C106.518 125.693 106.676 125.893 106.887 126.01C107.109 126.115 107.402 126.168 107.766 126.168C108.012 126.168 108.24 126.156 108.451 126.133C108.662 126.098 108.82 126.062 108.926 126.027V129.877C108.539 130.029 108.129 130.146 107.695 130.229C107.273 130.311 106.77 130.352 106.184 130.352C105.199 130.352 104.344 130.164 103.617 129.789C102.902 129.414 102.346 128.816 101.947 127.996C101.549 127.164 101.35 126.074 101.35 124.727V106.287ZM110.473 121.141V119.857C110.473 118.369 110.648 117.051 111 115.902C111.363 114.754 111.879 113.793 112.547 113.02C113.215 112.234 114.018 111.643 114.955 111.244C115.904 110.834 116.965 110.629 118.137 110.629C119.32 110.629 120.381 110.834 121.318 111.244C122.268 111.643 123.076 112.234 123.744 113.02C124.424 113.793 124.945 114.754 125.309 115.902C125.672 117.051 125.854 118.369 125.854 119.857V121.141C125.854 122.617 125.672 123.93 125.309 125.078C124.945 126.227 124.424 127.193 123.744 127.979C123.076 128.764 122.273 129.355 121.336 129.754C120.398 130.152 119.344 130.352 118.172 130.352C117 130.352 115.939 130.152 114.99 129.754C114.053 129.355 113.244 128.764 112.564 127.979C111.885 127.193 111.363 126.227 111 125.078C110.648 123.93 110.473 122.617 110.473 121.141ZM115.395 119.857V121.141C115.395 122.02 115.453 122.781 115.57 123.426C115.699 124.07 115.881 124.604 116.115 125.025C116.361 125.447 116.654 125.758 116.994 125.957C117.334 126.156 117.727 126.256 118.172 126.256C118.617 126.256 119.016 126.156 119.367 125.957C119.719 125.758 120.006 125.447 120.229 125.025C120.463 124.604 120.633 124.07 120.738 123.426C120.855 122.781 120.914 122.02 120.914 121.141V119.857C120.914 119.002 120.85 118.252 120.721 117.607C120.592 116.951 120.41 116.418 120.176 116.008C119.941 115.586 119.648 115.27 119.297 115.059C118.957 114.836 118.57 114.725 118.137 114.725C117.703 114.725 117.316 114.836 116.977 115.059C116.648 115.27 116.361 115.586 116.115 116.008C115.881 116.418 115.699 116.951 115.57 117.607C115.453 118.252 115.395 119.002 115.395 119.857ZM133.887 115.217V130H128.965V110.98H133.605L133.887 115.217ZM138.369 110.84L138.299 115.744C138.076 115.697 137.807 115.662 137.49 115.639C137.186 115.615 136.916 115.604 136.682 115.604C136.131 115.604 135.662 115.691 135.275 115.867C134.889 116.031 134.566 116.283 134.309 116.623C134.062 116.951 133.875 117.361 133.746 117.854C133.617 118.346 133.541 118.902 133.518 119.523L132.586 119.172C132.586 117.93 132.68 116.793 132.867 115.762C133.066 114.719 133.359 113.816 133.746 113.055C134.133 112.281 134.596 111.684 135.135 111.262C135.686 110.84 136.307 110.629 136.998 110.629C137.232 110.629 137.479 110.652 137.736 110.699C138.006 110.734 138.217 110.781 138.369 110.84ZM145.98 127.82L149.953 110.98H155.086L148.828 132.848C148.688 133.328 148.494 133.844 148.248 134.395C148.002 134.957 147.674 135.484 147.264 135.977C146.865 136.48 146.361 136.891 145.752 137.207C145.143 137.523 144.41 137.682 143.555 137.682C143.121 137.682 142.77 137.652 142.5 137.594C142.242 137.547 141.914 137.465 141.516 137.348V133.516C141.621 133.516 141.721 133.516 141.814 133.516C141.92 133.527 142.02 133.533 142.113 133.533C142.664 133.533 143.104 133.457 143.432 133.305C143.76 133.164 144.023 132.941 144.223 132.637C144.434 132.332 144.609 131.951 144.75 131.494L145.98 127.82ZM144.961 110.98L147.914 124.621L148.582 130.176L145.26 130.492L139.688 110.98H144.961Z" fill="black"/>
</svg>
